<?xml version="1.0" encoding="utf-8"?>
<!-- Generator: Adobe Illustrator 23.0.6, SVG Export Plug-In . SVG Version: 6.00 Build 0)  -->
<!DOCTYPE svg PUBLIC "-//W3C//DTD SVG 1.1//EN" "http://www.w3.org/Graphics/SVG/1.1/DTD/svg11.dtd" [
	<!ENTITY ns_extend "http://ns.adobe.com/Extensibility/1.0/">
	<!ENTITY ns_ai "http://ns.adobe.com/AdobeIllustrator/10.0/">
	<!ENTITY ns_graphs "http://ns.adobe.com/Graphs/1.0/">
	<!ENTITY ns_vars "http://ns.adobe.com/Variables/1.0/">
	<!ENTITY ns_imrep "http://ns.adobe.com/ImageReplacement/1.0/">
	<!ENTITY ns_sfw "http://ns.adobe.com/SaveForWeb/1.0/">
	<!ENTITY ns_custom "http://ns.adobe.com/GenericCustomNamespace/1.0/">
	<!ENTITY ns_adobe_xpath "http://ns.adobe.com/XPath/1.0/">
]>
<svg version="1.1" id="Layer_1" xmlns:x="&ns_extend;" xmlns:i="&ns_ai;" xmlns:graph="&ns_graphs;"
	 xmlns="http://www.w3.org/2000/svg" xmlns:xlink="http://www.w3.org/1999/xlink" x="0px" y="0px" width="1920px" height="528px"
	 viewBox="0 0 1920 528" style="enable-background:new 0 0 1920 528;" xml:space="preserve">
<style type="text/css">
	.st0{fill:#FFFFFF;}
</style>
<metadata>
	<sfw  xmlns="&ns_sfw;">
		<slices></slices>
		<sliceSourceBounds  bottomLeftOrigin="true" height="510.1" width="1906" x="0" y="-510.1"></sliceSourceBounds>
	</sfw>
</metadata>
<g>
	<path class="st0" d="M1714.4,500.6c-7.3,0-15.1,0-22.9,0c-16.8,0-33.5,0.1-50.3,0c-12.5-0.1-12.4-0.2-13.9-12.1
		c-1.6-12.6-3.4-25.2-5.3-39.6c-2.5,2.9-4.1,4.4-5.2,6.1c-23.5,36.9-59.1,51.2-100.7,53.9c-28.1,1.9-55.5-2.4-81.1-14.9
		c-43-20.9-68.3-56.3-79.4-101.8c-11.4-47-9.8-93.9,9.8-138.7c24.2-55.1,67-85.7,127-92.4c27.7-3.1,54.5-0.4,80.4,10.3
		c16.5,6.9,31.3,16.2,42.1,30.9c1.5,2.1,2.4,4.6,3.6,6.9c1.4-0.8,2.8-1.5,4.1-2.3c0-65.8,0-131.6,0-198.2c31.6,0,61.4,0,91.1,0
		C1717.6,20.2,1718.5,484.8,1714.4,500.6z M1622.1,333.1c0-40.2-20.6-72.2-55-85.3c-36.1-13.8-78-4.4-101.8,23.1
		c-13.9,16-19.3,35-21.1,55.8c-5.7,66.4,50.5,113.1,114.8,95.2C1598.1,410.9,1622,377.3,1622.1,333.1z"/>
	<path class="st0" d="M714.3,216.2c60.2,0,119.1,0,179,0c0,29.3,0,56.8,0,86.3c-59.1,0-117.9,0-178.4,0c0,66.4,0,131,0,196.8
		c-33.6,0-65.5,0-97.6,0c-3.8-9.6-4.6-471.9-0.5-490.5c102.8,0,205.8,0,310,0c0,29.2,0,58,0,88.5c-70.1,0-140,0-212.4,0
		C714.1,137.5,714.2,176,714.3,216.2z"/>
	<path class="st0" d="M1290.3,362.3c-83.8,0-166.1,0-248.4,0c2.1,41.4,29,69.2,68.2,72c18.6,1.3,37,1.3,55-4.5
		c12.9-4.1,24-10.7,33-20.9c2.4-2.7,6.3-5.6,9.5-5.6c25.6-0.3,51.1,0,76.7,0.1c0.8,0,1.5,0.8,2.8,1.5c-0.6,12.1-6.3,22.5-12.4,32.6
		c-17.7,29.2-43.8,48.2-75.5,59c-54.2,18.5-108.5,20-160.3-7.4c-51.1-27.1-79-71.1-86.9-128.2c-4.3-30.7-1.4-60.7,8.3-90
		c20.5-61.7,75.8-104.4,140.5-109.9c30.8-2.6,61-0.5,89.8,10.6c53.5,20.6,83.7,61.2,95.6,116.1
		C1291.4,311.5,1292.6,335.6,1290.3,362.3z M1043.5,295.8c51.3,0,101.7,0,152.9,0c0.7-18-5.8-32.4-18.7-43.4
		c-23.4-20-51-21.9-79.6-16.3C1067.5,242.2,1048.7,262.7,1043.5,295.8z"/>
	<path class="st0" d="M497.2,499.4c-110.2,0-218.4,0-327.4,0c0-32.5,0-64,0-97.3c75.3,0,150,0,226.7,0c0-131.9,0-262.1,0-393.2
		c34,0,66,0,100.5,0C497.2,171.8,497.3,334.7,497.2,499.4z"/>
	<path class="st0" d="M325.2,9.1c0,32.5,0,64,0,97c-75.3,0-150.1,0-226.6,0c0,131.7,0,262,0,393.3c-33.7,0-65.7,0-98.7,0
		C0,336,0,173.1,0,9.1C108,9.1,215.7,9.1,325.2,9.1z"/>
	<path class="st0" d="M1807.7,171.6c31.1,0,60.9,0,91.6,0c0,109.5,0,218.1,0,327.8c-30.6,0-60.6,0-91.6,0
		C1807.7,390.2,1807.7,281.6,1807.7,171.6z"/>
	<path class="st0" d="M168.2,254c0.1-44.1,36.2-79.7,80.4-79.1c43.4,0.5,79.4,36.4,79.4,79.2c0.1,42.6-36.5,79-79.5,79.1
		C203.9,333.3,168.1,298,168.2,254z"/>
	<path class="st0" d="M1906,53.5c-0.2,29.8-24.1,53.1-54.2,52.9c-30.1-0.2-54.3-23.8-54.4-53.1c-0.1-30.1,23.9-53.3,55.3-53.3
		C1883,0,1906.2,23.3,1906,53.5z"/>
</g>
</svg>
