<?xml version="1.0" encoding="utf-8"?>
<!-- Generator: Adobe Illustrator 23.0.6, SVG Export Plug-In . SVG Version: 6.00 Build 0)  -->
<!DOCTYPE svg PUBLIC "-//W3C//DTD SVG 1.1//EN" "http://www.w3.org/Graphics/SVG/1.1/DTD/svg11.dtd" [
	<!ENTITY ns_extend "http://ns.adobe.com/Extensibility/1.0/">
	<!ENTITY ns_ai "http://ns.adobe.com/AdobeIllustrator/10.0/">
	<!ENTITY ns_graphs "http://ns.adobe.com/Graphs/1.0/">
	<!ENTITY ns_vars "http://ns.adobe.com/Variables/1.0/">
	<!ENTITY ns_imrep "http://ns.adobe.com/ImageReplacement/1.0/">
	<!ENTITY ns_sfw "http://ns.adobe.com/SaveForWeb/1.0/">
	<!ENTITY ns_custom "http://ns.adobe.com/GenericCustomNamespace/1.0/">
	<!ENTITY ns_adobe_xpath "http://ns.adobe.com/XPath/1.0/">
]>
<svg version="1.1" id="Layer_1" xmlns:x="&ns_extend;" xmlns:i="&ns_ai;" xmlns:graph="&ns_graphs;"
	 xmlns="http://www.w3.org/2000/svg" xmlns:xlink="http://www.w3.org/1999/xlink" x="0px" y="0px" width="141px" height="53px"
	 viewBox="0 0 141 53" style="enable-background:new 0 0 141 53;" xml:space="preserve">
<style type="text/css">
	.st0{fill:#FFFFFF;}
	.st1{fill:url(#SVGID_1_);}
</style>
<metadata>
	<sfw  xmlns="&ns_sfw;">
		<slices></slices>
		<sliceSourceBounds  bottomLeftOrigin="true" height="52.9" width="140.6" x="0" y="0.1"></sliceSourceBounds>
	</sfw>
</metadata>
<path class="st0" d="M80.3,16.9h-9.6V14h10.9L80.3,16.9z M70.7,30.3V19.1h8.5L77.8,22h-3.9v8.3L70.7,30.3z"/>
<path class="st0" d="M86,30.1c-0.6,0.1-1.2,0-1.8-0.2c-0.6-0.2-1.1-0.5-1.5-1c-0.7-1-1-2.2-0.8-3.4v-7.4H85v7.4
	C85,25.8,85,26,85,26.3c0.1,0.2,0.2,0.4,0.4,0.6c0.2,0.2,0.4,0.3,0.6,0.4c0.2,0.1,0.5,0.1,0.7,0h1v-9.1h3.2v12H86z"/>
<path class="st0" d="M92.4,30.1v-12h3.2v9.1h3.8v2.9H92.4z"/>
<path class="st0" d="M106.8,21c-0.4,0-0.8,0.1-1.2,0.2c-0.4,0.2-0.7,0.4-1,0.7c-0.3,0.3-0.5,0.6-0.7,1c-0.2,0.4-0.2,0.8-0.2,1.2
	c0,0.4,0.1,0.8,0.3,1.2c0.2,0.4,0.4,0.7,0.7,1c0.3,0.3,0.6,0.5,1,0.7c0.4,0.2,0.8,0.2,1.2,0.2v-4.6h3.2v7.5h-3.5
	c-0.8,0-1.6-0.2-2.3-0.5c-0.7-0.3-1.4-0.8-1.9-1.4c-0.6-0.5-1.1-1.2-1.4-1.9c-0.3-0.7-0.5-1.5-0.5-2.3c0-1.6,0.7-3.1,1.8-4.2
	c1.1-1.1,2.6-1.8,4.2-1.8h3.5V21H106.8z"/>
<path class="st0" d="M115.7,30.1c-0.6,0.1-1.2,0-1.8-0.2c-0.6-0.2-1.1-0.5-1.5-1c-0.7-1-1-2.2-0.8-3.4v-7.4h3.2v7.4
	c-0.1,0.2-0.1,0.5,0,0.7c0.1,0.2,0.2,0.4,0.4,0.6c0.2,0.2,0.4,0.3,0.6,0.4s0.5,0.1,0.7,0h0.9v-9.1h3.2v12H115.7z"/>
<path class="st0" d="M121.9,22.7h4.2c0.1,0,0.2,0,0.3-0.1c0.1,0,0.2-0.1,0.3-0.2c0.1-0.2,0.2-0.4,0.2-0.6c0-0.2-0.1-0.4-0.2-0.6
	c-0.1-0.1-0.2-0.1-0.3-0.2c-0.1,0-0.2-0.1-0.3-0.1h-4.1v-2.9h4.8c0.5,0,1,0.1,1.5,0.3c0.5,0.2,0.9,0.6,1.1,1
	c0.5,0.7,0.8,1.5,0.8,2.4c0,0.4-0.1,0.8-0.2,1.2c-0.2,0.4-0.4,0.7-0.7,0.9c0.3,0.2,0.6,0.6,0.7,0.9c0.2,0.5,0.2,0.9,0.2,1.4V30h-3.2
	v-2.8c0.1-0.5-0.1-1-0.3-1.4c-0.4-0.3-0.9-0.4-1.3-0.3h-3.3V22.7z"/>
<path class="st0" d="M70.7,36.8H74l-8.7,16.1l-8.6-16.1H60L65.3,47L70.7,36.8z"/>
<path class="st0" d="M81.8,43.8h-8.2v-2.9h8.2V43.8z M73.6,45.5h8.2v2.9h-5v1.7h5v2.8h-8.2V45.5z"/>
<path class="st0" d="M88.5,40.9c0.6-0.1,1.2,0,1.8,0.2c0.6,0.2,1.1,0.5,1.5,1c0.7,1,0.9,2.2,0.8,3.4v7.5h-3.2v-7.4
	c0.1-0.2,0.1-0.5,0-0.7c-0.1-0.2-0.2-0.4-0.4-0.6c-0.2-0.2-0.4-0.3-0.6-0.4c-0.2-0.1-0.5-0.1-0.7,0h-0.9v9.1h-3.2v-12H88.5z"/>
<path class="st0" d="M93.7,46.1v-2.9h7.5v2.9H93.7z M97.4,47.6v0.8c-0.1,0.5,0.1,1,0.3,1.4c0.4,0.3,0.9,0.4,1.3,0.3h2.1v2.8h-2.9
	c-0.6,0.1-1.2,0-1.7-0.2c-0.6-0.2-1-0.5-1.5-0.9c-0.7-1-1-2.2-0.9-3.3v-0.8L97.4,47.6z M97.4,41v2.9h-3.2V41H97.4z"/>
<path class="st0" d="M107,52.9c-0.6,0.1-1.2,0-1.8-0.2c-0.6-0.2-1.1-0.5-1.5-1c-0.7-1-1-2.2-0.8-3.4v-7.5h3.2v7.5
	c-0.1,0.5,0.1,1,0.3,1.4c0.4,0.3,0.9,0.4,1.3,0.3h0.9v-9.2h3.2v12H107z"/>
<path class="st0" d="M113.2,45.5h4.2c0.1,0,0.2,0,0.3,0c0.1,0,0.2-0.1,0.3-0.2c0.2-0.2,0.2-0.4,0.2-0.6c0-0.2-0.1-0.4-0.2-0.6
	c-0.1-0.1-0.2-0.1-0.3-0.2c-0.1,0-0.2-0.1-0.3,0h-4.2v-2.9h4.8c0.5,0,1,0.1,1.5,0.3s0.8,0.6,1.1,1c0.5,0.7,0.8,1.6,0.8,2.5
	c0,0.4-0.1,0.8-0.2,1.2c-0.2,0.4-0.4,0.7-0.7,1c0.3,0.2,0.6,0.6,0.7,0.9c0.2,0.5,0.2,0.9,0.2,1.4v3.8h-3.2V50c0.1-0.5-0.1-1-0.3-1.4
	c-0.4-0.3-0.9-0.4-1.3-0.3h-3.3V45.5z"/>
<path class="st0" d="M131.2,43.8H123v-2.9h8.2V43.8z M123,45.5h8.2v2.9h-5v1.7h5v2.8H123V45.5z"/>
<path class="st0" d="M136.8,40.9v1.9c0.1,0.6,0.3,1.1,0.7,1.5l1.3,1.4l0.9,0.9c0.6,0.7,0.9,1.5,0.9,2.4c0,0.5,0,1.1-0.2,1.6
	c-0.2,0.5-0.4,1-0.8,1.4c-0.3,0.3-0.6,0.5-1,0.7c-0.4,0.2-0.8,0.2-1.2,0.2h-4.8V50h4.2c0.1,0,0.2,0,0.3-0.1c0.1,0,0.2-0.1,0.2-0.2
	c0.1-0.2,0.2-0.4,0.2-0.7c0-0.3-0.2-0.5-0.4-0.8l-1.4-1.4c-0.5-0.5-0.9-1.1-1.3-1.8c-0.5-0.7-0.7-1.5-0.8-2.3v-2H136.8z"/>
<linearGradient id="SVGID_1_" gradientUnits="userSpaceOnUse" x1="0" y1="27.5487" x2="56.4785" y2="27.5487" gradientTransform="matrix(1 0 0 -1 0 54)">
	<stop  offset="0.35" style="stop-color:#FF783C"/>
	<stop  offset="1" style="stop-color:#FF4154"/>
</linearGradient>
<path class="st1" d="M46.1,13.8h10.4l-24,39.1L16.4,26.7h10.4l5.6,9.3L46.1,13.8z M40.1,13.8H8.4l4.9,7.9h21.9L40.1,13.8z M48,0H0
	l3.2,5.1l2.5,4.1h36.7L48,0z"/>
</svg>
