<svg width="24" height="24" viewBox="0 0 24 24" fill="none" xmlns="http://www.w3.org/2000/svg">
<g clip-path="url(#clip0_8936_7030)">
<path d="M12.0105 23.9161C5.36483 23.9056 0 18.5512 0 11.9371C0 5.35439 5.41732 -0.0209361 12.0315 6.13073e-05C18.6562 0.0210587 24 5.37539 23.9895 11.9791C23.9895 18.5722 18.6247 23.9161 12.0105 23.9161ZM10.0577 6.28878C9.52231 6.32027 8.85039 6.34127 8.17848 6.40426C7.58005 6.45675 6.99213 6.51975 6.4042 6.61423C5.78478 6.71922 5.17585 6.8872 4.55643 7.02368C3.979 7.16017 3.61155 7.60111 3.64304 8.21004C3.68504 8.83996 4.28346 9.33339 4.97638 9.18641C5.6063 9.06043 6.21522 8.89245 6.84514 8.76647C7.83202 8.57749 8.8294 8.504 9.82677 8.504C10.6352 8.504 11.4436 8.54599 12.2415 8.60899C12.9029 8.66148 13.5748 8.74547 14.2362 8.85046C14.7402 8.93445 15.2441 9.07093 15.7375 9.19691C16.7559 9.45938 17.7323 9.82683 18.6667 10.3098C18.9081 10.4358 19.1391 10.5932 19.3911 10.6772C19.916 10.8557 20.4934 10.5512 20.7034 10.0263C20.9134 9.52237 20.6929 8.93445 20.21 8.65098C19.1811 8.05256 18.0787 7.59061 16.9449 7.25465C15.79 6.9082 14.6142 6.66673 13.4068 6.51975C12.357 6.38326 11.2861 6.32027 10.0577 6.28878ZM9.94226 10.4673C9.94226 10.4568 9.94226 10.4358 9.94226 10.4253C9.12336 10.4987 8.30446 10.5512 7.48556 10.6457C7.00262 10.6982 6.51969 10.8032 6.03675 10.9082C5.69029 10.9817 5.35433 11.0762 5.01837 11.2022C4.61942 11.3491 4.40945 11.8006 4.50394 12.2415C4.58793 12.6405 4.94488 12.9449 5.36483 12.9239C5.6273 12.9134 5.87927 12.819 6.14173 12.7665C6.68766 12.651 7.2336 12.525 7.77953 12.441C8.25197 12.3675 8.73491 12.3465 9.21785 12.3255C10.3622 12.2625 11.5066 12.336 12.6404 12.5145C13.0814 12.588 13.5118 12.693 13.9528 12.7875C14.7507 12.9659 15.5171 13.2179 16.252 13.5539C16.7559 13.7848 17.2388 14.0473 17.7218 14.3098C18.1837 14.5617 18.7297 14.4358 18.9921 14.0053C19.2441 13.5854 19.1076 13.0184 18.6772 12.756C17.5118 12.0316 16.252 11.5171 14.9291 11.1497C14.1522 10.9292 13.3438 10.8032 12.5459 10.6667C11.6745 10.5092 10.8031 10.4673 9.94226 10.4673ZM10.0997 14.3833C10.0997 14.4043 10.0997 14.4253 10.0997 14.4463C9.80577 14.4463 9.50131 14.4253 9.20735 14.4463C8.53543 14.4987 7.86352 14.5617 7.2021 14.6562C6.64567 14.7402 6.08924 14.8662 5.53281 14.9817C5.27034 15.0342 5.02887 15.2757 4.99738 15.5066C4.90289 16.0736 5.33333 16.483 5.90026 16.3675C6.4357 16.2625 6.97113 16.1365 7.50656 16.0736C8.29396 15.9791 9.08136 15.8846 9.86877 15.8636C10.8766 15.8321 11.8845 15.9371 12.8819 16.1365C13.6273 16.2835 14.3622 16.4935 15.0551 16.8085C15.5276 17.0184 15.9895 17.2599 16.4409 17.5119C16.8504 17.7428 17.3228 17.6589 17.5118 17.2914C17.7113 16.9029 17.5853 16.483 17.1654 16.252C16.8084 16.0631 16.4619 15.8636 16.0945 15.6956C14.8976 15.1077 13.6168 14.7507 12.3045 14.5722C11.5696 14.4568 10.8346 14.4358 10.0997 14.3833Z" fill="white"/>
</g>
<defs>
<clipPath id="clip0_8936_7030">
<rect width="24" height="23.916" fill="white"/>
</clipPath>
</defs>
</svg>
