<svg width="24" height="24" viewBox="0 0 24 24" fill="none" xmlns="http://www.w3.org/2000/svg">
<path d="M18.4689 22.5002C18.311 22.5008 18.157 22.4516 18.0287 22.3596L12.0001 17.989L5.97151 22.3596C5.84271 22.453 5.68755 22.5031 5.52844 22.5025C5.36933 22.5019 5.21453 22.4507 5.08642 22.3564C4.9583 22.262 4.86351 22.1294 4.81575 21.9776C4.76799 21.8258 4.76973 21.6628 4.82073 21.5121L7.17198 14.5479L1.07823 10.369C0.946235 10.2786 0.846613 10.1483 0.793919 9.99724C0.741225 9.84617 0.738222 9.68221 0.785347 9.52932C0.832472 9.37642 0.927257 9.2426 1.05585 9.14741C1.18445 9.05222 1.34011 9.00065 1.5001 9.00023H9.01792L11.2867 2.0182C11.3355 1.86746 11.4309 1.73607 11.5591 1.64289C11.6872 1.5497 11.8416 1.49951 12.0001 1.49951C12.1586 1.49951 12.313 1.5497 12.4411 1.64289C12.5693 1.73607 12.6647 1.86746 12.7135 2.0182L14.9823 9.00257H22.5001C22.6603 9.00249 22.8163 9.05371 22.9453 9.14871C23.0743 9.24372 23.1694 9.37753 23.2169 9.53054C23.2643 9.68355 23.2615 9.84773 23.2088 9.99903C23.1562 10.1503 23.0565 10.2808 22.9243 10.3713L16.8282 14.5479L19.1781 21.5102C19.2161 21.6229 19.2269 21.7431 19.2093 21.8608C19.1918 21.9785 19.1465 22.0903 19.0772 22.187C19.0079 22.2837 18.9166 22.3626 18.8108 22.417C18.7051 22.4715 18.5878 22.5 18.4689 22.5002Z" fill="#EEDB5F"/>
</svg>
