<svg width="643" height="136" viewBox="0 0 643 136" fill="none" xmlns="http://www.w3.org/2000/svg">
<path d="M506.51 86.7348C510.089 82.2111 513.716 77.6393 517.295 73.1156C521.065 68.3513 524.835 63.6351 528.605 58.8226C530.466 56.4645 532.947 55.2614 535.858 55.2133C545.307 55.1652 554.756 55.1652 564.729 55.1652C562.153 58.2933 559.862 61.1807 557.524 63.972C549.984 73.0675 542.492 82.2111 534.856 91.2585C533.186 93.1835 533.377 94.4829 534.856 96.3597C544.496 108.68 554.04 121.144 563.584 133.512C563.918 133.945 564.205 134.426 564.729 135.148C563.775 135.244 563.155 135.341 562.487 135.341C554.374 135.341 546.262 135.292 538.149 135.389C533.95 135.437 530.8 133.945 528.223 130.384C521.447 120.999 514.432 111.76 507.465 102.52C507.131 102.087 506.796 101.702 506.081 100.883C506.081 112.626 506.081 123.791 506.081 135.148C497.157 135.148 488.472 135.148 479.596 135.148C479.596 99.0547 479.596 62.9613 479.596 26.6755C488.329 26.6755 497.014 26.6755 506.033 26.6755C506.033 46.6953 506.033 66.6188 506.033 86.4942C506.176 86.6386 506.367 86.6867 506.51 86.7348Z" fill="white"/>
<path d="M341.874 85.7738C341.874 84.5226 341.874 83.5601 341.874 82.6457C341.779 78.3627 340.299 76.8227 336.052 76.8227C325.649 76.7746 315.198 76.8227 304.795 76.8227C297.923 76.8227 296.396 75.5233 295.394 68.7859C294.774 64.5991 294.201 60.4122 293.628 56.081C294.201 55.9848 294.631 55.7923 295.06 55.7923C309.71 55.7923 324.313 55.7442 338.963 55.8885C345.024 55.9367 350.941 57.0917 356.477 59.9791C364.398 64.1178 367.834 71.2402 368.025 79.662C368.407 97.9493 368.216 116.237 368.216 134.524C368.216 134.765 368.12 135.005 368.025 135.246C361.821 135.246 355.665 135.342 349.509 135.198C347.41 135.15 346.217 133.417 345.692 131.396C345.215 129.711 344.785 128.075 344.308 126.295C343.878 126.535 343.592 126.583 343.497 126.776C339.488 133.225 333.237 135.39 326.174 135.631C320.304 135.823 314.387 135.92 308.565 135.39C297.255 134.331 290.192 127.979 289.715 115.804C289.572 111.472 289.524 107.093 290.097 102.858C291.338 93.185 298.257 86.8326 308.804 86.2551C318.73 85.7257 328.655 85.9663 338.629 85.9182C339.631 85.7738 340.633 85.7738 341.874 85.7738ZM341.635 103.339C335.479 103.339 329.467 103.339 323.454 103.339C316.63 103.339 315.532 104.542 316.2 111.376C316.439 113.686 317.584 115.178 319.923 115.226C324.361 115.322 328.846 115.467 333.237 115.082C339.965 114.456 342.638 110.606 341.635 103.339Z" fill="white"/>
<path d="M0.861328 135.39C26.6305 90.3452 52.1611 45.7338 77.8826 0.737427C80.4596 5.4055 82.7979 9.64045 85.1362 13.9235C86.0429 15.5116 86.8541 17.1479 87.8085 18.736C89.7651 22.0084 89.6697 25.2328 87.8085 28.5052C82.1775 38.2745 76.6419 48.0919 71.0586 57.9093C60.894 75.7635 50.7295 93.6658 40.6127 111.52C40.3264 112.001 40.1355 112.482 39.7537 113.397C40.9468 113.397 41.8535 113.397 42.7602 113.397C59.1284 113.349 75.5443 113.397 91.9125 113.252C96.112 113.204 98.7843 114.792 100.502 118.69C102.745 123.84 105.227 128.845 107.613 133.946C107.804 134.379 107.947 134.812 108.185 135.39C72.3947 135.39 36.8905 135.39 0.861328 135.39Z" fill="white"/>
<path d="M410.735 135.294C401.811 135.294 393.221 135.294 384.488 135.294C384.488 108.777 384.488 82.4048 384.488 55.8401C390.692 55.8401 396.848 55.7438 403.004 55.8882C405.247 55.9363 406.297 57.9095 407.013 59.8344C407.442 60.9894 407.776 62.1925 408.158 63.3956C408.54 63.2513 408.778 63.2513 408.826 63.155C412.405 57.5726 417.798 54.9257 424.049 54.5889C430.587 54.252 437.268 54.2039 443.71 55.1664C455.592 56.8988 461.033 65.2244 463.037 76.0524C463.514 78.5548 463.657 81.1536 463.657 83.7042C463.705 100.066 463.705 116.429 463.705 132.791C463.705 133.561 463.705 134.331 463.705 135.294C454.781 135.294 446.144 135.294 437.22 135.294C437.22 134.235 437.22 133.32 437.22 132.406C437.22 117.103 437.22 101.799 437.22 86.4473C437.22 85.2442 437.172 84.041 437.029 82.8379C436.409 78.5067 434.738 76.1967 430.491 75.7636C425.958 75.3305 421.329 75.523 416.748 75.9561C413.407 76.293 411.546 78.7955 411.021 82.1642C410.783 83.656 410.687 85.196 410.687 86.6879C410.639 101.847 410.687 117.006 410.687 132.165C410.735 133.176 410.735 134.09 410.735 135.294Z" fill="white"/>
<path d="M213.505 76.8237C213.505 78.1712 213.505 79.1818 213.505 80.1924C213.505 88.7105 213.457 97.1803 213.505 105.698C213.553 111.906 216.129 114.457 222.238 114.505C225.196 114.505 228.107 114.505 231.066 114.65C234.025 114.794 236.077 116.382 236.602 119.366C237.508 124.659 238.272 129.953 239.035 135.054C238.654 135.391 238.558 135.536 238.415 135.536C229.205 135.439 219.947 135.776 210.785 135.054C201.813 134.332 194.273 130.386 189.931 121.868C187.402 116.911 186.781 111.521 186.781 105.987C186.781 97.2285 186.781 88.5179 186.781 79.7593C186.781 78.8931 186.781 78.0268 186.781 76.8718C182.2 76.8718 177.762 76.8718 172.942 76.8718C173.467 73.4069 173.944 70.2788 174.422 67.1507C174.708 65.1776 174.946 63.2045 175.328 61.2314C175.996 57.7183 177.571 56.2264 181.102 55.9377C182.868 55.7933 184.681 55.8896 186.781 55.8896C186.781 52.6171 186.733 49.7296 186.781 46.8903C186.877 42.2222 187.926 40.7304 192.365 39.4791C198.855 37.6504 205.392 35.9179 211.93 34.1373C212.36 34.0411 212.837 34.0411 213.553 33.9929C213.553 41.2116 213.553 48.334 213.553 55.6971C221.283 55.6971 228.775 55.6971 236.649 55.6971C236.411 57.7183 236.268 59.4026 236.029 61.1351C235.6 64.4076 235.218 67.6801 234.645 70.9044C233.882 74.995 231.877 76.6793 227.726 76.7756C223.144 76.8718 218.516 76.8237 213.505 76.8237Z" fill="white"/>
<path d="M155.716 135.871C152.566 135.871 149.989 135.871 147.412 135.871C143.26 135.871 139.156 135.823 135.005 135.871C131.569 135.919 129.135 134.524 127.417 131.492C118.732 116.381 109.999 101.318 101.266 86.2069C100.932 85.6294 100.503 85.0519 99.93 84.1857C98.737 86.0625 97.5917 87.6988 96.6373 89.3831C95.0148 92.3187 92.5333 94.1475 89.2883 94.4843C82.6551 95.1581 75.9742 95.6393 69.341 96.1687C69.1501 96.1687 68.9115 96.0724 68.3866 95.9281C79.1238 77.6408 89.7655 59.4979 100.646 40.9699C119.018 72.684 137.248 104.013 155.716 135.871Z" fill="white"/>
<path d="M249.439 135.247C249.439 108.73 249.439 82.4542 249.439 55.9376C258.172 55.9376 266.857 55.9376 275.733 55.9376C275.733 82.2617 275.733 108.682 275.733 135.247C267.048 135.247 258.363 135.247 249.439 135.247Z" fill="white"/>
<path d="M598.802 135.293C589.974 135.293 581.337 135.293 572.556 135.293C572.556 108.825 572.556 82.4526 572.556 55.8879C581.241 55.8879 589.926 55.8879 598.802 55.8879C598.802 82.2601 598.802 108.632 598.802 135.293Z" fill="white"/>
<path d="M642.324 135.247C641.752 135.295 641.131 135.439 640.511 135.439C633.019 135.439 625.574 135.439 618.082 135.487C616.603 135.487 615.982 135.15 615.982 133.514C616.03 108.105 616.03 82.6948 616.03 57.237C616.03 56.852 616.125 56.467 616.173 55.9376C624.906 55.9376 633.544 55.9376 642.372 55.9376C642.324 82.2617 642.324 108.634 642.324 135.247Z" fill="white"/>
<path d="M249.057 26.2433C258.124 26.2433 267.095 26.2433 276.258 26.2433C276.258 33.1732 276.258 39.9106 276.258 46.8887C267.238 46.8887 258.219 46.8887 249.057 46.8887C249.057 40.055 249.057 33.2213 249.057 26.2433Z" fill="white"/>
<path d="M642.753 47.0346C633.734 47.0346 624.81 47.0346 615.743 47.0346C615.743 40.1047 615.743 33.271 615.743 26.293C624.667 26.293 633.639 26.293 642.753 26.293C642.753 33.0785 642.753 39.9122 642.753 47.0346Z" fill="white"/>
<path d="M599.184 47.033C590.117 47.033 581.241 47.033 572.126 47.033C572.126 40.1031 572.126 33.2694 572.126 26.2433C581.05 26.2433 590.022 26.2433 599.184 26.2433C599.184 33.0769 599.184 39.9106 599.184 47.033Z" fill="white"/>
</svg>
