<svg width="256" height="256" viewBox="0 0 256 256" fill="none" xmlns="http://www.w3.org/2000/svg">
<path d="M149.319 89.8162C149.056 90.0862 148.773 90.3726 148.568 90.6419C148.375 90.8968 148.259 91.1314 148.321 91.2992C148.398 91.5065 148.731 91.6195 149.145 91.6894C151.453 91.9089 153.637 92.1292 154.231 92.176C154.016 94.1982 152.999 99.3836 152.165 103.867C152.128 104.151 152.139 104.38 152.246 104.457C152.275 104.477 152.309 104.482 152.346 104.479C152.357 104.478 152.369 104.474 152.381 104.47C152.408 104.464 152.437 104.454 152.467 104.437C152.482 104.429 152.496 104.421 152.512 104.411C152.543 104.39 152.575 104.365 152.609 104.337C152.624 104.325 152.638 104.314 152.654 104.3C152.702 104.257 152.752 104.209 152.804 104.154C153.094 103.852 153.44 103.399 153.748 103.022L157.8 98.1663L163.966 90.7693C164.007 90.7183 164.057 90.6642 164.096 90.6095C164.284 90.3842 164.461 90.1704 164.633 89.9666C165.011 89.4944 165.301 89.0423 165.218 88.7436C165.171 88.5592 164.897 88.4614 164.581 88.3973C163.063 88.1842 161.37 87.9452 159.652 87.7451C159.814 86.2772 160.225 83.6344 160.641 80.9866L160.843 79.5404C160.876 79.3395 160.924 79.1055 160.964 78.8665C161.03 78.5383 161.088 78.2007 161.114 77.9264C161.13 77.6744 161.124 77.4787 161.052 77.3966C161.037 77.3785 161.027 77.3641 161.005 77.3562C160.984 77.349 160.955 77.3555 160.928 77.3605C160.912 77.3634 160.898 77.3656 160.882 77.372C160.857 77.3814 160.83 77.3959 160.804 77.4117C160.785 77.4225 160.769 77.4297 160.75 77.4426C160.718 77.4635 160.684 77.4902 160.649 77.5175C160.632 77.5319 160.616 77.5435 160.597 77.5586C160.543 77.6039 160.487 77.6543 160.429 77.7097C160.074 78.0509 159.638 78.5577 159.332 78.8904L156.621 81.8535L155.439 83.1478L149.684 89.4361C149.576 89.5527 149.452 89.6823 149.319 89.8162Z" fill="url(#paint0_linear_7340_4270)"/>
<path d="M119.891 82.2137C119.633 82.5974 119.439 82.9429 119.461 83.0991C119.464 83.1179 119.472 83.1345 119.481 83.1503L119.481 83.1517C119.491 83.1711 119.502 83.187 119.522 83.2021C119.551 83.2287 119.592 83.2503 119.642 83.2684C119.745 83.2986 120.483 83.2727 120.701 83.2554C121.29 83.2072 121.878 83.1661 122.473 83.133C122.641 83.1237 122.809 83.1179 122.982 83.1092C123.75 83.0718 124.514 83.0423 125.27 83.025C125.874 83.0099 126.471 83.0005 127.059 82.9948C127.222 82.9933 127.38 82.9926 127.54 82.9919C128.084 82.989 128.623 82.9876 129.137 82.9926C128.962 87.394 128.748 92.0605 128.565 96.5036C128.54 97.1897 128.509 97.87 128.485 98.5424C128.428 99.975 128.428 99.975 128.428 99.975C128.425 100.076 128.42 100.184 128.416 100.29C128.4 100.935 128.4 101.647 128.541 101.84C128.545 101.849 128.551 101.857 128.558 101.864C128.583 101.888 128.612 101.898 128.643 101.898C128.645 101.898 128.648 101.896 128.65 101.896C128.678 101.895 128.709 101.885 128.741 101.867C128.752 101.861 128.763 101.852 128.774 101.844C128.799 101.827 128.825 101.809 128.851 101.785C128.865 101.773 128.879 101.757 128.894 101.744C128.92 101.719 128.945 101.692 128.972 101.662C128.987 101.644 129.004 101.625 129.02 101.606C129.045 101.575 129.071 101.542 129.097 101.508C129.114 101.486 129.132 101.463 129.149 101.44C129.175 101.405 129.201 101.369 129.226 101.333C129.244 101.308 129.262 101.283 129.279 101.258C129.306 101.22 129.332 101.181 129.357 101.141C129.374 101.116 129.392 101.091 129.408 101.066C129.448 101.005 129.488 100.945 129.526 100.886C129.526 100.886 129.526 100.886 130.177 99.9102C134.273 93.7753 139.606 86.2955 144.34 79.8395C145.746 77.9188 145.988 77.5948 145.988 77.5948C146.016 77.561 146.044 77.5236 146.072 77.489C146.682 76.682 147.454 75.8131 147.765 75.2055C147.854 75.0284 147.913 74.8693 147.903 74.7434C147.898 74.6836 147.867 74.6375 147.818 74.6001C147.8 74.5864 147.77 74.5807 147.748 74.5698C147.707 74.5497 147.67 74.5281 147.616 74.5151C147.58 74.5058 147.536 74.5029 147.495 74.4965C147.445 74.4885 147.397 74.4791 147.342 74.4748C147.292 74.4712 147.239 74.4712 147.187 74.4698C147.134 74.4683 147.079 74.4647 147.025 74.4647C146.834 74.4669 146.651 74.4762 146.529 74.4805C146.529 74.4805 146.529 74.4805 145.599 74.5202C142.898 74.6339 140.13 74.7786 137.496 74.9549C137.694 70.4153 137.946 65.2083 138.155 60.7176C138.208 59.4707 138.208 59.4707 138.208 59.4707C138.21 59.4362 138.211 59.3959 138.213 59.3591C138.235 58.8826 138.254 58.2412 138.104 58.054C138.078 58.0259 138.051 58.0043 138.018 58.0007C137.998 57.9978 137.974 58.0043 137.951 58.0093C137.935 58.0122 137.918 58.0137 137.901 58.0209C137.881 58.0288 137.858 58.041 137.837 58.0533C137.818 58.0633 137.8 58.072 137.78 58.0849C137.757 58.1001 137.733 58.1202 137.708 58.1389C137.688 58.1555 137.666 58.1699 137.644 58.1893C137.619 58.2109 137.593 58.2376 137.566 58.2628C137.543 58.2843 137.521 58.3045 137.498 58.3283C137.468 58.3578 137.438 58.3909 137.408 58.4226C137.386 58.447 137.363 58.4686 137.341 58.4946C137.307 58.532 137.273 58.5723 137.238 58.6126C137.218 58.6371 137.196 58.6601 137.176 58.6853C137.13 58.7386 137.085 58.7948 137.04 58.8509C137.028 58.8646 137.018 58.8775 137.007 58.8912C136.949 58.9632 136.89 59.0366 136.832 59.1115C136.677 59.3102 136.519 59.5168 136.369 59.7097C136.369 59.7097 136.369 59.7097 135.279 61.1589C135.172 61.3043 135.054 61.4598 134.939 61.6096C131.881 65.6899 126.123 73.6095 126.123 73.6095C125.845 73.9874 125.584 74.3467 125.33 74.6879C125.129 74.9665 124.93 75.2444 124.727 75.523C124.549 75.7692 122.143 79.0886 121.621 79.8128C120.717 81.0669 120.717 81.0669 120.717 81.0669C120.488 81.3836 120.156 81.8199 119.891 82.2137Z" fill="url(#paint1_linear_7340_4270)"/>
<path d="M104.052 103.315C104.066 103.54 104.076 103.707 104.085 103.832C104.104 104.212 104.104 104.212 104.104 104.212C104.108 104.275 104.113 104.341 104.118 104.408C104.145 104.826 104.19 105.29 104.299 105.381L104.302 105.382C104.317 105.395 104.334 105.398 104.352 105.397C104.382 105.396 104.416 105.374 104.452 105.341C104.458 105.335 104.464 105.33 104.469 105.325C104.505 105.287 104.543 105.239 104.58 105.181C104.587 105.172 104.593 105.162 104.599 105.153C104.638 105.092 104.677 105.026 104.716 104.956C104.721 104.948 104.726 104.94 104.73 104.932C104.771 104.859 104.81 104.785 104.847 104.715C104.847 104.715 104.847 104.715 105.192 104.069C107.374 100.007 110.248 95.0344 112.809 90.7345C113.568 89.4546 113.701 89.2378 113.701 89.2378C113.713 89.2148 113.73 89.1911 113.745 89.1673C114.078 88.6289 114.508 88.0421 114.66 87.6455C114.705 87.5303 114.734 87.4266 114.719 87.3517C114.716 87.3337 114.708 87.3186 114.702 87.3071C114.63 87.202 114.383 87.2049 114.158 87.2265C114.138 87.2287 114.122 87.2308 114.102 87.233C114.003 87.2445 113.913 87.2582 113.85 87.2653C113.85 87.2653 113.849 87.2653 113.272 87.3445C111.593 87.5706 109.876 87.8218 108.247 88.0846C108.095 85.2431 107.934 81.9806 107.791 79.168C107.752 78.3891 107.752 78.3891 107.752 78.3891C107.751 78.3668 107.749 78.3429 107.747 78.3178C107.735 78.0442 107.709 77.6828 107.624 77.5417C107.599 77.5065 107.575 77.4834 107.545 77.482C107.521 77.4812 107.491 77.5029 107.463 77.5173C107.444 77.5273 107.427 77.5273 107.406 77.5439C107.377 77.5669 107.343 77.6058 107.312 77.6396C107.288 77.6649 107.266 77.6821 107.242 77.7116C107.211 77.7491 107.178 77.7965 107.146 77.8398C107.118 77.8786 107.09 77.9125 107.06 77.9556C106.999 78.0456 106.935 78.1429 106.872 78.2429C106.789 78.3768 106.701 78.5135 106.621 78.6439C106.621 78.6439 106.621 78.6439 106.03 79.6099C105.969 79.7072 105.905 79.8101 105.844 79.9109C104.185 82.6314 101.069 87.9053 101.069 87.9053C100.921 88.1559 100.778 88.3971 100.643 88.6224C100.535 88.8081 100.427 88.9931 100.317 89.1774C100.219 89.343 98.9235 91.5516 98.6411 92.0339C98.1543 92.8691 98.1543 92.8691 98.1543 92.8691C98.0279 93.0799 97.847 93.3708 97.7051 93.6328C97.5683 93.8877 97.4668 94.1123 97.494 94.2102C97.4984 94.2253 97.5059 94.239 97.5139 94.2505C97.5382 94.2757 97.5712 94.2944 97.6161 94.3045C97.6294 94.3074 97.6661 94.3052 97.7043 94.3031C97.7213 94.3023 97.7352 94.3016 97.7551 94.3002C97.7926 94.2973 97.8338 94.293 97.8779 94.288C97.8985 94.2858 97.9169 94.2844 97.9382 94.2815C97.9845 94.2757 98.0294 94.27 98.0742 94.2642C98.0933 94.2621 98.1132 94.2591 98.1316 94.2569C98.1896 94.249 98.2411 94.2411 98.2734 94.2354C98.6382 94.172 99.0044 94.1109 99.3706 94.0569C99.4772 94.0396 99.5831 94.0281 99.6867 94.0122C100.162 93.9438 100.638 93.882 101.107 93.8265C101.943 93.7265 102.76 93.6444 103.52 93.581C103.7 96.7615 103.871 100.162 104.052 103.315Z" fill="url(#paint2_linear_7340_4270)"/>
<path d="M93.8837 189.85C94.6352 189.677 95.3741 189.514 96.1051 189.353C96.3175 189.306 96.5278 189.26 96.7397 189.215C97.2859 189.097 97.8272 188.982 98.3617 188.869C98.5587 188.827 98.7565 188.786 98.9521 188.745C99.6574 188.599 100.354 188.457 101.038 188.321C101.07 188.315 101.1 188.309 101.132 188.302C101.786 188.173 102.428 188.049 103.061 187.93L103.197 187.905C103.336 187.88 103.475 187.853 103.614 187.827C104.118 187.734 104.614 187.644 105.105 187.556C105.274 187.525 105.443 187.496 105.61 187.466C106.248 187.355 106.878 187.246 107.494 187.144C107.533 187.138 107.571 187.132 107.61 187.125C108.184 187.031 108.747 186.942 109.302 186.856C109.463 186.831 109.623 186.807 109.782 186.783C110.242 186.714 110.695 186.646 111.141 186.583C111.277 186.564 111.415 186.544 111.55 186.525C112.117 186.446 112.675 186.371 113.22 186.302C113.276 186.295 113.33 186.288 113.386 186.281C113.87 186.221 114.344 186.165 114.81 186.111C114.952 186.095 115.094 186.079 115.235 186.064C115.639 186.019 116.036 185.977 116.425 185.938C116.539 185.926 116.655 185.916 116.768 185.904C117.259 185.857 117.74 185.813 118.208 185.774C118.272 185.77 118.333 185.766 118.397 185.76C118.798 185.729 119.189 185.701 119.573 185.675C119.697 185.666 119.82 185.659 119.943 185.651C120.289 185.63 120.628 185.612 120.959 185.596C121.051 185.591 121.145 185.587 121.236 185.582C121.65 185.564 122.053 185.551 122.445 185.54C122.509 185.539 122.57 185.539 122.634 185.537C122.956 185.531 123.271 185.526 123.577 185.526H123.889C124.163 185.526 124.429 185.53 124.689 185.536H124.707C124.78 185.537 124.856 185.539 124.927 185.541C125.256 185.55 125.575 185.562 125.88 185.579C125.932 185.582 125.981 185.586 126.034 185.589C126.283 185.605 126.525 185.622 126.758 185.641C126.845 185.649 126.931 185.657 127.017 185.665C127.218 185.684 127.412 185.706 127.601 185.729C127.676 185.739 127.752 185.746 127.824 185.757C128.072 185.789 128.311 185.825 128.536 185.865C128.567 185.872 128.593 185.878 128.623 185.883C128.817 185.919 129.002 185.957 129.178 185.998C129.242 186.014 129.304 186.029 129.367 186.045C129.507 186.08 129.642 186.118 129.77 186.156C129.825 186.173 129.881 186.189 129.934 186.206C130.105 186.263 130.268 186.32 130.415 186.382C131.349 186.778 131.242 187.76 130.525 188.964C130.087 189.702 129.449 190.55 128.626 191.34C127.194 192.714 126.32 193.458 123.961 195.127V195.182C124.435 195.024 124.913 194.872 125.391 194.722C125.556 194.67 125.722 194.62 125.888 194.569C126.258 194.455 126.629 194.343 127.001 194.233C127.189 194.178 127.376 194.124 127.564 194.069C127.931 193.963 128.301 193.859 128.67 193.756C128.844 193.709 129.018 193.66 129.192 193.612C129.648 193.488 130.106 193.369 130.565 193.25C130.645 193.229 130.726 193.208 130.807 193.187C131.349 193.049 131.893 192.915 132.437 192.785C132.582 192.75 132.727 192.717 132.871 192.682C133.272 192.588 133.673 192.495 134.073 192.405C134.257 192.363 134.44 192.323 134.624 192.283C135 192.2 135.375 192.118 135.749 192.04C135.924 192.003 136.1 191.966 136.275 191.93C136.701 191.842 137.127 191.755 137.553 191.673C137.668 191.65 137.783 191.626 137.899 191.603C138.442 191.499 138.985 191.397 139.524 191.299L139.596 191.286C139.674 191.273 139.751 191.259 139.829 191.245C140.265 191.167 140.699 191.09 141.132 191.017C141.3 190.989 141.467 190.961 141.635 190.933C142.008 190.871 142.381 190.811 142.752 190.751C142.885 190.73 143.019 190.709 143.152 190.688L143.263 190.67C143.659 190.609 144.052 190.551 144.444 190.492C144.573 190.474 144.703 190.454 144.831 190.435C145.358 190.359 145.881 190.286 146.399 190.216L146.467 190.208C146.955 190.142 147.438 190.08 147.92 190.021C148.061 190.003 148.202 189.986 148.344 189.969C148.708 189.924 149.071 189.881 149.431 189.84C149.585 189.823 149.74 189.806 149.892 189.789C150.256 189.748 150.616 189.709 150.974 189.672C151.101 189.658 151.23 189.644 151.356 189.631C152.322 189.533 153.264 189.445 154.177 189.369C154.287 189.36 154.395 189.352 154.504 189.343C154.851 189.315 155.192 189.288 155.529 189.263C155.66 189.253 155.787 189.244 155.914 189.235C156.239 189.211 156.559 189.189 156.874 189.169C156.988 189.161 157.104 189.154 157.217 189.147C157.592 189.123 157.961 189.101 158.323 189.082C158.365 189.08 158.407 189.077 158.449 189.075C158.86 189.053 159.261 189.033 159.652 189.016C159.697 189.014 159.74 189.012 159.783 189.01L159.87 189.008C160.18 188.993 160.483 188.982 160.781 188.972L160.818 188.971C160.909 188.967 161 188.964 161.092 188.962C161.358 188.953 161.621 188.946 161.876 188.939C161.973 188.937 162.069 188.935 162.163 188.932C162.44 188.927 162.709 188.921 162.973 188.918C163.033 188.917 163.098 188.916 163.158 188.915C163.48 188.911 163.795 188.91 164.095 188.91H164.174C164.435 188.91 164.687 188.912 164.93 188.916C165 188.917 165.067 188.918 165.134 188.92C165.343 188.923 165.543 188.928 165.736 188.933L165.905 188.937C166.144 188.946 166.375 188.954 166.589 188.964C166.599 188.964 166.607 188.965 166.617 188.966C166.817 188.976 167.003 188.988 167.179 189C167.232 189.004 167.281 189.009 167.332 189.012C167.464 189.022 167.589 189.034 167.706 189.045C167.753 189.05 167.8 189.054 167.844 189.059C167.993 189.076 168.133 189.093 168.255 189.112C170.311 189.427 171.585 189.951 171.584 190.673C171.584 192.056 169.358 193.97 166.148 196.02C175.814 196.428 184.901 196.994 193.224 197.692C190.314 194.466 187.592 191.088 185.021 187.597C184.626 184.299 184.503 180.879 184.796 178.331C185.383 173.226 187.28 168.742 188.477 166.903C189.192 165.804 189.705 165.038 190.503 164.224C191.017 164.125 191.512 164.05 191.996 163.998L192.025 163.997C192.499 163.948 192.965 163.922 193.43 163.921C193.584 163.921 193.737 163.926 193.891 163.933C193.968 163.935 194.045 163.935 194.122 163.939C194.286 163.947 194.449 163.962 194.614 163.979L194.624 163.979C194.693 163.986 194.761 163.988 194.831 163.996C195.01 164.015 195.192 164.042 195.374 164.069C195.433 164.078 195.491 164.084 195.551 164.093C195.793 164.132 196.039 164.179 196.29 164.231C201.7 165.38 204.138 170.217 204.517 173.691C209.157 166.871 204.891 160.926 198.537 160.685C198.36 160.679 198.173 160.683 197.986 160.686C197.881 160.688 197.776 160.691 197.667 160.697C197.531 160.704 197.392 160.714 197.252 160.726C197.142 160.736 197.032 160.745 196.92 160.757C196.779 160.772 196.634 160.792 196.488 160.813L196.438 160.819C196.341 160.833 196.243 160.846 196.145 160.863C196.004 160.886 195.861 160.913 195.718 160.94L195.702 160.943C195.587 160.965 195.472 160.985 195.355 161.01C195.205 161.041 195.052 161.077 194.902 161.113C194.787 161.141 194.673 161.165 194.559 161.195C194.43 161.228 194.301 161.264 194.172 161.3L194.096 161.322C193.986 161.352 193.877 161.381 193.769 161.413C193.6 161.464 193.436 161.518 193.27 161.572C193.178 161.603 193.085 161.63 192.994 161.662C192.74 161.749 192.49 161.841 192.246 161.937C193.164 160.941 194.167 160.054 195.176 159.52C195.355 159.395 195.544 159.283 195.736 159.178C195.798 159.146 195.861 159.116 195.924 159.084C196.06 159.017 196.196 158.952 196.337 158.893C196.411 158.862 196.486 158.833 196.561 158.804C196.699 158.752 196.837 158.702 196.978 158.657C197.051 158.634 197.124 158.61 197.199 158.588C197.359 158.542 197.521 158.5 197.681 158.462C197.735 158.449 197.789 158.434 197.844 158.422C198.06 158.375 198.276 158.335 198.493 158.302C198.543 158.293 198.595 158.288 198.645 158.282C198.813 158.257 198.977 158.236 199.141 158.22C199.219 158.212 199.296 158.205 199.372 158.199C199.51 158.187 199.647 158.177 199.783 158.169C199.86 158.166 199.938 158.162 200.015 158.159C200.151 158.154 200.284 158.151 200.416 158.15C200.489 158.149 200.564 158.148 200.636 158.148C200.682 158.148 200.728 158.149 200.774 158.15C200.887 158.151 200.998 158.154 201.106 158.159C201.152 158.16 201.196 158.162 201.241 158.163C201.358 158.169 201.472 158.177 201.582 158.184H201.589C201.612 158.185 201.637 158.186 201.66 158.188C201.793 158.198 201.921 158.211 202.041 158.223C202.071 158.227 202.101 158.231 202.131 158.234C202.217 158.245 202.301 158.256 202.38 158.266C202.418 158.271 202.452 158.277 202.487 158.282C202.556 158.293 202.621 158.303 202.682 158.314C202.711 158.319 202.74 158.325 202.767 158.329C202.849 158.346 202.925 158.361 202.99 158.378C204.507 158.757 207.017 159.528 209.281 161.918C209.293 161.843 209.302 161.764 209.311 161.678C209.313 161.653 209.315 161.626 209.317 161.601C209.323 161.537 209.328 161.474 209.332 161.406C209.335 161.369 209.335 161.33 209.337 161.293C209.34 161.231 209.342 161.169 209.343 161.102C209.345 161.062 209.344 161.017 209.344 160.975C209.344 160.908 209.346 160.843 209.344 160.774C209.343 160.723 209.34 160.669 209.339 160.616C209.337 160.552 209.335 160.488 209.332 160.422C209.329 160.361 209.324 160.298 209.32 160.236C209.317 160.173 209.313 160.112 209.307 160.048C209.302 159.982 209.295 159.915 209.288 159.848C209.283 159.783 209.276 159.719 209.269 159.652C209.261 159.583 209.251 159.511 209.242 159.441C209.234 159.376 209.227 159.311 209.216 159.244C209.205 159.167 209.192 159.09 209.179 159.012C209.168 158.948 209.159 158.885 209.147 158.82C209.132 158.741 209.116 158.661 209.1 158.581C209.087 158.515 209.075 158.451 209.06 158.385C209.046 158.315 209.028 158.244 209.012 158.174L209.003 158.139C208.988 158.073 208.973 158.008 208.957 157.942C208.935 157.856 208.911 157.769 208.886 157.683C208.868 157.62 208.851 157.558 208.833 157.494C208.81 157.413 208.783 157.331 208.756 157.248L208.75 157.228C208.73 157.165 208.711 157.103 208.689 157.041C208.659 156.951 208.626 156.863 208.594 156.774C208.571 156.712 208.549 156.649 208.524 156.587C208.49 156.498 208.452 156.41 208.416 156.321C208.39 156.26 208.364 156.198 208.338 156.136C208.298 156.047 208.258 155.96 208.216 155.873C208.187 155.812 208.158 155.75 208.127 155.689C208.088 155.61 208.046 155.533 208.004 155.456L207.992 155.432C207.958 155.37 207.925 155.309 207.891 155.248C207.844 155.165 207.793 155.082 207.743 154.999L207.726 154.971C207.695 154.92 207.664 154.869 207.631 154.818C207.578 154.737 207.523 154.658 207.467 154.579C207.427 154.518 207.386 154.459 207.343 154.401C207.286 154.323 207.227 154.246 207.166 154.17C207.121 154.112 207.076 154.055 207.028 153.998C206.966 153.924 206.902 153.851 206.836 153.779C206.787 153.723 206.735 153.667 206.685 153.613C206.618 153.544 206.548 153.476 206.478 153.407C206.423 153.354 206.368 153.301 206.311 153.249C206.239 153.184 206.165 153.121 206.089 153.058C206.028 153.007 205.969 152.957 205.906 152.908C205.83 152.848 205.75 152.79 205.67 152.732C205.604 152.685 205.538 152.638 205.471 152.593C205.389 152.538 205.305 152.486 205.219 152.434C205.147 152.391 205.076 152.348 205.001 152.306C204.913 152.258 204.825 152.211 204.735 152.166C204.657 152.127 204.577 152.087 204.498 152.05C204.406 152.008 204.312 151.967 204.217 151.93C204.132 151.896 204.047 151.86 203.958 151.829C203.862 151.794 203.762 151.76 203.663 151.728C203.571 151.699 203.478 151.671 203.385 151.644C203.283 151.615 203.179 151.589 203.072 151.564C202.973 151.54 202.873 151.519 202.772 151.498C202.665 151.477 202.555 151.458 202.446 151.44C202.339 151.423 202.231 151.407 202.122 151.395C202.01 151.381 201.895 151.37 201.779 151.36C201.666 151.35 201.55 151.342 201.432 151.336C201.315 151.331 201.195 151.327 201.073 151.324C200.887 151.321 200.701 151.318 200.507 151.325C198.376 151.398 195.986 152.886 194.606 154.433C192.963 156.275 191.838 158.468 191.059 160.346C191.613 157.904 192.146 155.131 192.252 153.352C192.369 151.404 192.2 148.167 188.766 145.772C188.588 145.648 188.391 145.53 188.184 145.417C188.116 145.381 188.043 145.348 187.973 145.312C187.826 145.239 187.676 145.167 187.517 145.1C187.432 145.064 187.345 145.031 187.257 144.997L187.247 144.993C187.093 144.933 186.934 144.877 186.771 144.824C186.673 144.792 186.575 144.76 186.475 144.731C186.301 144.68 186.121 144.634 185.938 144.591C185.843 144.568 185.749 144.544 185.652 144.523C185.416 144.473 185.174 144.431 184.927 144.395C184.879 144.387 184.833 144.377 184.783 144.371C184.489 144.33 184.186 144.302 183.881 144.284C183.789 144.278 183.695 144.278 183.603 144.274C183.372 144.265 183.138 144.259 182.903 144.262C182.844 144.263 182.786 144.264 182.728 144.266C182.431 144.276 182.131 144.294 181.831 144.325C181.789 144.329 181.747 144.335 181.703 144.34C181.4 144.374 181.096 144.419 180.792 144.478C180.776 144.481 180.759 144.484 180.742 144.487C180.434 144.548 180.128 144.626 179.822 144.713C179.77 144.729 179.719 144.742 179.668 144.758C179.373 144.848 179.08 144.952 178.792 145.069C178.74 145.09 178.689 145.112 178.637 145.134C178.344 145.258 178.052 145.395 177.768 145.55C177.744 145.563 177.722 145.578 177.697 145.592C177.422 145.745 177.153 145.915 176.888 146.099C176.856 146.122 176.823 146.142 176.791 146.165C176.527 146.355 176.274 146.564 176.027 146.785C175.98 146.826 175.933 146.869 175.887 146.912C175.647 147.137 175.414 147.378 175.194 147.638C175.157 147.681 175.121 147.726 175.086 147.77C174.858 148.048 174.637 148.339 174.434 148.655C174.434 148.655 174.46 148.653 174.509 148.646C174.548 148.641 174.614 148.632 174.681 148.623C174.702 148.621 174.715 148.619 174.738 148.616C174.823 148.606 174.925 148.594 175.041 148.583C175.057 148.581 175.075 148.58 175.093 148.578L175.111 148.576C175.214 148.567 175.329 148.558 175.451 148.55C175.488 148.547 175.522 148.545 175.558 148.543C175.711 148.533 175.875 148.526 176.052 148.521C176.083 148.52 176.116 148.52 176.146 148.52C176.302 148.518 176.467 148.517 176.64 148.519C176.687 148.519 176.732 148.519 176.781 148.521C176.983 148.525 177.194 148.535 177.415 148.548C177.456 148.55 177.496 148.555 177.536 148.558C177.733 148.573 177.935 148.59 178.142 148.616C178.194 148.621 178.245 148.626 178.299 148.633C178.537 148.662 178.783 148.699 179.035 148.745C179.087 148.754 179.141 148.766 179.194 148.775C179.416 148.818 179.641 148.866 179.871 148.923C179.922 148.936 179.973 148.946 180.024 148.959C180.287 149.027 180.552 149.105 180.821 149.193C180.882 149.212 180.943 149.235 181.005 149.256C181.246 149.339 181.489 149.431 181.733 149.532C181.776 149.55 181.818 149.566 181.86 149.584C182.132 149.701 182.405 149.833 182.678 149.976C182.743 150.01 182.807 150.046 182.873 150.081C183.129 150.221 183.383 150.371 183.635 150.536C183.66 150.554 183.687 150.568 183.713 150.586C183.982 150.766 184.248 150.964 184.511 151.176C184.575 151.226 184.637 151.28 184.702 151.333C184.967 151.556 185.231 151.789 185.486 152.047C188.251 154.844 189.118 158.013 189.326 160.452C189.225 160.269 189.116 160.082 189.003 159.895C188.967 159.836 188.927 159.775 188.89 159.715C188.81 159.587 188.728 159.457 188.642 159.328C188.595 159.256 188.545 159.185 188.495 159.113C188.414 158.994 188.331 158.875 188.245 158.757C188.19 158.682 188.133 158.606 188.077 158.531C187.991 158.417 187.903 158.303 187.812 158.19L187.795 158.168C187.739 158.099 187.683 158.031 187.626 157.962C187.533 157.85 187.436 157.74 187.339 157.63L187.299 157.586C187.248 157.529 187.196 157.47 187.143 157.413C187.045 157.307 186.941 157.202 186.838 157.099L186.812 157.073C186.751 157.012 186.692 156.95 186.63 156.889C186.465 156.731 186.295 156.578 186.121 156.429C186.098 156.409 186.074 156.39 186.051 156.371C185.876 156.223 185.696 156.083 185.511 155.948C185.442 155.898 185.369 155.851 185.298 155.802C185.167 155.712 185.037 155.623 184.902 155.539C184.823 155.491 184.743 155.446 184.662 155.4L184.645 155.39C184.517 155.316 184.388 155.246 184.257 155.18C184.165 155.134 184.073 155.091 183.98 155.048C183.848 154.988 183.714 154.931 183.579 154.879C183.482 154.841 183.387 154.805 183.29 154.772C183.148 154.723 183.003 154.681 182.858 154.641C182.763 154.615 182.669 154.588 182.572 154.566C182.41 154.528 182.244 154.501 182.077 154.476C181.995 154.463 181.913 154.446 181.828 154.437C181.04 154.346 180.204 154.388 179.324 154.605C175.835 155.465 174.352 159.263 174.845 163.37C175.018 163.167 175.192 162.975 175.364 162.792C175.421 162.732 175.478 162.676 175.533 162.618C175.65 162.497 175.765 162.379 175.883 162.267C175.936 162.216 175.989 162.167 176.042 162.118L176.082 162.082L176.109 162.056C176.207 161.967 176.303 161.879 176.4 161.795C176.469 161.735 176.538 161.677 176.608 161.618C176.711 161.533 176.813 161.451 176.915 161.372C176.984 161.317 177.053 161.264 177.124 161.213C177.227 161.136 177.329 161.064 177.432 160.994C177.498 160.949 177.565 160.902 177.631 160.858C177.741 160.786 177.85 160.719 177.96 160.654C178.017 160.619 178.074 160.582 178.131 160.55C178.276 160.467 178.42 160.39 178.563 160.319C178.583 160.308 178.606 160.295 178.626 160.284C178.791 160.203 178.953 160.131 179.115 160.062C179.166 160.041 179.218 160.023 179.268 160.003C179.378 159.959 179.49 159.916 179.599 159.878C179.659 159.857 179.721 159.839 179.782 159.819C179.881 159.787 179.979 159.757 180.076 159.73C180.139 159.713 180.202 159.697 180.265 159.68C180.36 159.657 180.454 159.635 180.548 159.616C180.611 159.603 180.672 159.59 180.735 159.58C180.829 159.562 180.922 159.547 181.016 159.534C181.074 159.526 181.132 159.517 181.19 159.51C181.29 159.497 181.389 159.489 181.487 159.481C181.536 159.477 181.587 159.471 181.635 159.468C181.759 159.461 181.881 159.457 182.002 159.457C182.025 159.457 182.048 159.455 182.07 159.455C182.079 159.455 182.087 159.456 182.096 159.456C182.42 159.457 182.734 159.478 183.038 159.517C183.065 159.52 183.093 159.525 183.12 159.528C183.405 159.567 183.68 159.619 183.944 159.683C183.973 159.69 184.004 159.697 184.034 159.706C184.297 159.771 184.549 159.848 184.79 159.932C184.81 159.939 184.832 159.946 184.851 159.953C185.107 160.043 185.35 160.141 185.575 160.242C185.579 160.244 185.583 160.246 185.588 160.248C185.812 160.349 186.02 160.452 186.214 160.555C186.232 160.565 186.252 160.575 186.27 160.585C186.447 160.68 186.612 160.772 186.759 160.861C186.778 160.872 186.797 160.884 186.815 160.895C186.96 160.982 187.089 161.062 187.203 161.135C187.333 161.218 187.445 161.291 187.531 161.345C188.103 161.74 188.554 162.198 188.922 162.68C186.241 164.783 183.006 168.738 181.308 172.558C180.351 174.77 179.655 176.902 179.22 179.101C177.71 176.738 176.252 174.344 174.841 171.931C174.703 171.693 174.569 171.455 174.433 171.218C165.485 155.602 158.276 139.259 152.48 122.418C152.466 122.418 152.452 122.419 152.438 122.42C151.819 120.611 151.222 118.794 150.635 116.974C150.575 116.788 150.515 116.602 150.455 116.417C150.381 116.189 150.134 115.39 149.92 114.695L149.879 114.561C149.771 114.211 149.673 113.897 149.618 113.72C149.606 113.682 149.59 113.623 149.566 113.551C149.533 113.458 149.489 113.345 149.435 113.218C149.402 113.144 149.367 113.069 149.322 112.992C149.167 112.734 148.806 112.541 148.674 112.495C148.669 112.493 148.657 112.487 148.651 112.485C148.608 112.472 148.559 112.461 148.515 112.448C148.28 112.38 148.038 112.313 147.785 112.249C147.736 112.236 147.687 112.222 147.637 112.21C147.302 112.126 146.946 112.045 146.582 111.965L146.548 111.958C146.427 111.932 146.306 111.905 146.182 111.88C145.876 111.816 145.562 111.754 145.24 111.695C145.033 111.656 144.818 111.619 144.604 111.582L144.573 111.577C144.457 111.556 144.344 111.536 144.224 111.516L144.225 111.519C143.503 111.399 142.756 111.285 141.963 111.184C140.035 110.967 138.088 110.784 136.106 110.667L135.973 110.661C134.979 110.603 133.984 110.554 132.978 110.523C131.943 110.489 130.901 110.47 129.853 110.468C129.796 110.468 129.741 110.467 129.684 110.467C129.626 110.467 129.57 110.468 129.512 110.468C129.228 110.472 128.945 110.481 128.66 110.483C127.708 110.492 126.756 110.502 125.814 110.534C125.756 110.535 125.699 110.538 125.642 110.539C125.279 110.554 124.922 110.58 124.559 110.598L124.388 110.605C123.574 110.643 122.76 110.681 121.955 110.736C121.87 110.742 121.786 110.748 121.701 110.754C120.855 110.817 120.035 110.891 119.24 110.973C115.808 111.326 112.877 111.849 110.717 112.486C110.597 112.521 110.143 112.747 110.008 113.047C109.872 113.347 109.777 113.612 109.744 113.721C109.405 114.803 109.058 115.883 108.708 116.962C102.594 135.815 94.7719 154.083 84.7982 171.45C84.7055 171.611 84.6151 171.772 84.5217 171.931C84.1151 172.627 83.6945 173.317 83.2805 174.011C82.2239 170.523 80.8216 167.248 79.2599 164.112C78.1363 161.854 76.6657 158.817 75.1436 156.375C75.2818 156.284 75.4362 156.198 75.5965 156.117C75.6399 156.096 75.684 156.075 75.7289 156.054C75.8671 155.989 76.0121 155.928 76.1642 155.871C76.1973 155.858 76.2289 155.844 76.2627 155.833C76.4473 155.768 76.6414 155.71 76.8414 155.658C76.8877 155.645 76.9356 155.636 76.9826 155.626C77.1488 155.587 77.3186 155.552 77.4937 155.523C77.548 155.515 77.601 155.505 77.6561 155.497C77.876 155.466 78.1003 155.441 78.3319 155.427C78.3606 155.425 78.39 155.425 78.4186 155.424C78.6275 155.414 78.8407 155.411 79.0569 155.416C79.1105 155.417 79.1643 155.418 79.2187 155.421C79.4584 155.432 79.701 155.449 79.9474 155.479C79.9738 155.483 80.0003 155.488 80.0261 155.492C80.2525 155.522 80.4804 155.563 80.7099 155.611C80.7643 155.623 80.8187 155.634 80.8739 155.646C81.1224 155.704 81.3724 155.772 81.6216 155.854C81.6643 155.867 81.7047 155.884 81.7473 155.898C81.9695 155.974 82.1915 156.061 82.4121 156.155C82.4621 156.177 82.5122 156.197 82.5621 156.22C82.8092 156.332 83.0548 156.459 83.2975 156.597C83.3474 156.626 83.3975 156.658 83.4474 156.687C83.6636 156.817 83.8769 156.956 84.0879 157.107C84.1283 157.136 84.1687 157.163 84.2099 157.193C84.4445 157.367 84.6754 157.558 84.9019 157.763C84.9541 157.81 85.0055 157.86 85.057 157.909C85.2651 158.104 85.4695 158.312 85.6681 158.534C85.6916 158.562 85.7166 158.586 85.7416 158.613C85.9548 158.859 86.1607 159.124 86.3614 159.403C86.4093 159.47 86.457 159.538 86.5034 159.607C86.7034 159.899 86.8997 160.202 87.0836 160.531C87.1637 160.18 87.2247 159.837 87.2733 159.496C87.2887 159.381 87.2953 159.27 87.3078 159.156C87.332 158.933 87.3556 158.711 87.3667 158.495C87.3733 158.364 87.3703 158.236 87.3718 158.106C87.3747 157.912 87.3762 157.72 87.3674 157.532C87.3615 157.398 87.3482 157.269 87.3365 157.138C87.321 156.96 87.3041 156.784 87.2784 156.613C87.2607 156.488 87.2376 156.366 87.2143 156.244L87.2115 156.229C87.1792 156.064 87.1438 155.901 87.1034 155.742C87.0717 155.618 87.0379 155.497 87.0005 155.378C86.9534 155.223 86.8997 155.072 86.8431 154.923C86.7997 154.81 86.7563 154.697 86.7078 154.587C86.6438 154.441 86.5733 154.301 86.5012 154.162L86.4929 154.147C86.4427 154.05 86.3923 153.953 86.3379 153.859C86.2563 153.721 86.1666 153.592 86.0761 153.461C86.0159 153.374 85.9578 153.284 85.893 153.201C85.7879 153.066 85.6732 152.941 85.5585 152.817C85.4975 152.75 85.4409 152.679 85.3769 152.615C85.2137 152.455 85.0401 152.306 84.86 152.167C84.8365 152.148 84.8158 152.127 84.7923 152.109C84.5857 151.955 84.3673 151.816 84.1401 151.69C84.0695 151.651 83.9938 151.622 83.9224 151.586C83.7599 151.505 83.5975 151.426 83.4254 151.361C83.3305 151.325 83.2298 151.299 83.1327 151.266C82.9753 151.215 82.8172 151.166 82.6533 151.128C82.543 151.102 82.4283 151.086 82.3158 151.065C82.154 151.037 81.9922 151.011 81.8247 150.995C81.7033 150.984 81.579 150.979 81.4547 150.973C81.2694 150.966 81.0834 150.963 80.8915 150.97C80.8121 150.972 80.7327 150.974 80.6518 150.98C80.365 150.999 80.0745 151.03 79.7753 151.084C78.3208 151.387 76.0149 152.869 74.7039 154.73C75.2355 152.904 76.0547 151.194 76.5804 150.489C78.0414 148.524 80.187 147.387 82.1915 147.17C82.5269 147.134 82.8797 147.115 83.2393 147.111C83.2864 147.111 83.3327 147.109 83.3798 147.109C83.4349 147.109 83.4901 147.112 83.5467 147.114C83.6879 147.116 83.8313 147.124 83.9746 147.134C84.0415 147.139 84.1085 147.145 84.1754 147.152C84.3232 147.166 84.4732 147.186 84.6232 147.21C84.6784 147.219 84.732 147.225 84.7879 147.234C84.9901 147.27 85.1938 147.315 85.3982 147.37C85.4387 147.381 85.4783 147.395 85.5188 147.407C85.6842 147.454 85.8497 147.508 86.0158 147.569C86.0813 147.594 86.1475 147.62 86.213 147.647C86.3614 147.707 86.51 147.774 86.6579 147.846C86.7203 147.877 86.7821 147.906 86.8445 147.939C87.0497 148.048 87.2548 148.164 87.4578 148.299C87.1792 143.634 83.9548 142.13 81.6673 141.799C81.4025 141.761 81.1363 141.748 80.871 141.751C80.7541 141.752 80.6385 141.769 80.5209 141.778C80.3613 141.791 80.2018 141.801 80.0437 141.828C79.9239 141.848 79.8061 141.882 79.687 141.91C79.5334 141.947 79.3797 141.982 79.2283 142.032C79.1083 142.071 78.9914 142.121 78.8738 142.168C78.7261 142.227 78.5775 142.287 78.4319 142.357C78.315 142.415 78.2003 142.481 78.0848 142.546C77.9429 142.626 77.8003 142.708 77.662 142.8C77.5495 142.875 77.4385 142.956 77.3282 143.038C77.1928 143.139 77.0591 143.242 76.9275 143.354C76.8201 143.445 76.715 143.541 76.6106 143.639C76.4826 143.758 76.3576 143.882 76.2347 144.012C76.134 144.119 76.0356 144.229 75.9385 144.342C75.8208 144.479 75.7061 144.622 75.5936 144.77C75.5002 144.891 75.4098 145.015 75.3208 145.143C75.2134 145.298 75.1105 145.458 75.009 145.623C74.9259 145.758 74.8428 145.894 74.7641 146.036C74.6685 146.207 74.5789 146.386 74.4907 146.566L74.4737 146.6C74.4066 146.737 74.3398 146.873 74.2774 147.015C74.195 147.203 74.1193 147.398 74.045 147.594C73.9847 147.753 73.923 147.91 73.8678 148.074C73.7994 148.279 73.7406 148.491 73.6803 148.702C73.634 148.871 73.5832 149.035 73.5421 149.209C73.4891 149.431 73.448 149.661 73.4045 149.891C73.3715 150.065 73.3348 150.234 73.3082 150.412C73.2715 150.657 73.2495 150.911 73.2252 151.165C73.209 151.336 73.1854 151.504 73.1752 151.678C73.1575 151.963 73.1575 152.255 73.1561 152.547C73.1546 152.7 73.145 152.849 73.1487 153.004C73.159 153.454 73.1869 153.913 73.237 154.381C73.0869 154.024 72.9288 153.681 72.7664 153.345C72.7148 153.239 72.6589 153.137 72.606 153.032C72.4921 152.807 72.3759 152.586 72.2568 152.372C72.2004 152.271 72.1435 152.174 72.0865 152.076L72.0612 152.033C71.945 151.834 71.8266 151.641 71.706 151.452C71.6384 151.347 71.5714 151.242 71.5031 151.14C71.3707 150.941 71.2354 150.75 71.0971 150.563C71.0391 150.483 70.9817 150.4 70.9222 150.323C70.7244 150.063 70.5229 149.812 70.317 149.574C70.3001 149.554 70.2817 149.536 70.2648 149.516C70.0751 149.3 69.8825 149.092 69.6869 148.893C69.617 148.821 69.5465 148.756 69.4758 148.688C69.3287 148.544 69.1817 148.404 69.0317 148.271C68.9523 148.199 68.8706 148.129 68.7897 148.06C68.6442 147.936 68.4978 147.818 68.3493 147.702C68.2692 147.641 68.1891 147.578 68.1089 147.518C67.9449 147.397 67.7802 147.283 67.6133 147.173C67.5501 147.131 67.4868 147.085 67.4229 147.044C67.1919 146.898 66.9596 146.759 66.7265 146.633C66.6956 146.616 66.6648 146.602 66.6339 146.587C66.4317 146.479 66.2272 146.379 66.0235 146.286C65.947 146.253 65.8713 146.222 65.7949 146.189C65.6338 146.121 65.4729 146.056 65.3125 145.997C65.228 145.966 65.1441 145.937 65.0595 145.908C64.9014 145.855 64.7441 145.807 64.5868 145.763C64.5067 145.741 64.4258 145.717 64.3456 145.697C64.1691 145.652 63.9933 145.615 63.8176 145.581C63.7596 145.57 63.7007 145.556 63.6434 145.546C63.4095 145.505 63.1764 145.474 62.9455 145.453C62.9051 145.45 62.8662 145.45 62.8257 145.446C62.6367 145.432 62.4485 145.423 62.2624 145.421C62.2044 145.421 62.147 145.423 62.0896 145.424C61.8294 145.428 61.5734 145.442 61.3206 145.47C61.2852 145.474 61.2492 145.475 61.2147 145.48C60.9426 145.514 60.6771 145.565 60.4153 145.628C60.3566 145.642 60.2984 145.657 60.2404 145.672C59.9793 145.741 59.722 145.821 59.4734 145.919C59.4579 145.924 59.444 145.932 59.4286 145.938C59.1918 146.033 58.9631 146.145 58.7396 146.266C58.691 146.292 58.6403 146.318 58.5918 146.346C58.366 146.476 58.1477 146.618 57.9389 146.775C57.9013 146.803 57.8653 146.834 57.8293 146.863C57.6411 147.011 57.4602 147.17 57.2881 147.34C57.258 147.37 57.227 147.396 57.1976 147.427C57.0123 147.617 56.8403 147.821 56.6763 148.037C56.6403 148.084 56.6057 148.133 56.5704 148.182C56.4079 148.409 56.2535 148.644 56.1167 148.897C54.8248 151.397 54.8858 154.488 55.1527 156.308C56.1153 155.334 57.3388 154.197 58.9028 153.263C59.1242 153.13 59.3469 153.014 59.5697 152.907C59.6396 152.873 59.7087 152.844 59.7786 152.812C59.9352 152.742 60.0918 152.677 60.2484 152.618C60.3249 152.589 60.4014 152.561 60.4779 152.535C60.6389 152.481 60.7999 152.431 60.9595 152.387C61.0227 152.369 61.0859 152.349 61.1485 152.333C61.3676 152.278 61.5859 152.232 61.8021 152.194C61.8411 152.188 61.8793 152.183 61.9183 152.178C62.0978 152.148 62.2765 152.125 62.4536 152.108C62.5264 152.1 62.5978 152.095 62.6706 152.09C62.8147 152.079 62.9587 152.071 63.1 152.065C63.1728 152.064 63.2448 152.061 63.3169 152.06C63.4161 152.059 63.5125 152.062 63.6088 152.063C63.7772 152.065 63.9411 152.072 64.1036 152.082C64.1889 152.087 64.2735 152.092 64.3581 152.1C64.5214 152.114 64.6801 152.13 64.8353 152.15C64.9066 152.159 64.9786 152.167 65.0485 152.177C65.2404 152.204 65.4257 152.235 65.6037 152.269C65.6294 152.274 65.6573 152.278 65.6831 152.282C65.8883 152.322 66.0831 152.366 66.2684 152.41C66.3228 152.423 66.3721 152.436 66.4243 152.448C66.553 152.481 66.6758 152.512 66.7919 152.544L66.8119 152.55C66.8643 152.564 66.9152 152.579 66.9655 152.593C67.0662 152.622 67.1603 152.65 67.2501 152.677C67.3044 152.693 67.3611 152.709 67.4119 152.725L67.6941 152.812C67.7971 152.844 67.8891 152.872 67.9574 152.891C68.528 153.044 70.5722 154.045 72.32 155.38C72.3237 155.387 72.3266 155.396 72.3303 155.403C71.9692 155.241 71.595 155.099 71.2141 154.97C71.1847 154.961 71.1553 154.949 71.1259 154.94C70.7619 154.82 70.3905 154.72 70.0156 154.633C69.9678 154.623 69.9192 154.61 69.8714 154.6C69.506 154.521 69.1369 154.46 68.767 154.415C68.7082 154.408 68.6501 154.4 68.5913 154.394C68.2258 154.354 67.8596 154.334 67.4949 154.33C67.411 154.33 67.3266 154.33 67.2427 154.33C67.1192 154.332 66.9956 154.337 66.8721 154.343C66.7655 154.348 66.6596 154.355 66.5529 154.364C66.4294 154.374 66.3066 154.387 66.1846 154.402C66.0802 154.416 65.9758 154.428 65.8721 154.445C65.7493 154.463 65.628 154.487 65.5066 154.51C65.4061 154.53 65.3049 154.55 65.2051 154.573C65.0823 154.602 64.9625 154.635 64.8419 154.669C64.7456 154.697 64.6485 154.722 64.5537 154.752C64.4397 154.789 64.3291 154.831 64.2173 154.872L64.1911 154.882C64.1014 154.916 64.011 154.947 63.9228 154.984C63.7978 155.036 63.6772 155.095 63.5552 155.155C63.4757 155.193 63.3934 155.229 63.3154 155.27C63.1943 155.334 63.0773 155.405 62.9602 155.477L62.9257 155.498C62.8624 155.537 62.797 155.572 62.7345 155.612C62.5463 155.735 62.3624 155.867 62.1852 156.011C61.1639 156.836 59.9948 158.636 59.7889 160.204C59.5484 162.029 59.9588 163.539 60.7455 164.505C62.1448 160.32 66.05 157.949 69.0309 157.056C69.0935 157.038 69.1744 157.017 69.2625 156.997C69.2891 156.992 69.3177 156.986 69.3464 156.98C69.4185 156.965 69.4971 156.951 69.5817 156.936C69.6148 156.93 69.6449 156.925 69.6795 156.919C69.7964 156.9 69.9221 156.882 70.0575 156.866C70.0883 156.862 70.1221 156.859 70.1545 156.855C70.2641 156.842 70.3802 156.831 70.5008 156.82C70.5516 156.817 70.6031 156.813 70.6553 156.809C70.7795 156.799 70.9082 156.791 71.0398 156.786C71.0803 156.784 71.1171 156.782 71.1575 156.781C71.3215 156.774 71.4906 156.773 71.6627 156.774C71.8122 156.774 71.9646 156.78 72.1185 156.785H72.1244C72.1899 156.788 72.2531 156.788 72.3193 156.791C72.5428 156.805 72.7686 156.823 72.9965 156.849C76.5502 164.921 78.1782 173.802 78.6186 181.438C77.4377 183.225 76.2341 185 74.9818 186.74C74.7804 187.018 74.5693 187.291 74.3649 187.569C70.7949 182.99 66.2971 179.099 63.4823 177.123C63.3912 177.042 63.2875 176.98 63.1779 176.929C64.1124 176.099 65.2177 175.581 66.1802 175.459C66.4486 175.425 66.7147 175.405 66.9787 175.392C67.0537 175.388 67.1273 175.386 67.2015 175.385C67.3919 175.379 67.5802 175.382 67.7684 175.389C67.8633 175.392 67.9589 175.394 68.053 175.4C68.2655 175.414 68.4758 175.44 68.686 175.47C68.742 175.479 68.7994 175.483 68.8553 175.492C69.1192 175.537 69.3817 175.595 69.6428 175.668C69.7118 175.688 69.781 175.714 69.8494 175.734C70.0428 175.794 70.2339 175.859 70.4251 175.934C70.5162 175.97 70.606 176.01 70.6964 176.05C70.8678 176.125 71.0398 176.206 71.2104 176.297C71.3031 176.345 71.395 176.394 71.4869 176.446C71.6641 176.548 71.8413 176.659 72.0185 176.777C72.0979 176.83 72.1788 176.879 72.2575 176.935C72.5119 177.115 72.7656 177.308 73.0185 177.522C73.0715 177.229 73.1009 176.951 73.1185 176.683C73.1236 176.596 73.1223 176.516 73.1237 176.433C73.1282 176.253 73.1266 176.077 73.1148 175.909C73.1082 175.821 73.1001 175.736 73.0906 175.651C73.0715 175.493 73.045 175.339 73.0134 175.192C72.9979 175.118 72.9832 175.042 72.9641 174.97C72.9178 174.801 72.8619 174.641 72.7994 174.485C72.784 174.447 72.7722 174.406 72.7552 174.368C72.673 174.179 72.5766 174.003 72.4708 173.837C72.4414 173.79 72.4068 173.748 72.3752 173.704C72.2943 173.587 72.209 173.475 72.1178 173.369C72.0721 173.317 72.0251 173.267 71.9774 173.218C71.8899 173.127 71.7994 173.04 71.7046 172.959C71.6531 172.914 71.6016 172.869 71.5486 172.828C71.442 172.745 71.3325 172.668 71.22 172.595C71.1737 172.565 71.1303 172.533 71.0832 172.505C70.9237 172.41 70.7597 172.322 70.5905 172.246C70.5545 172.23 70.5177 172.218 70.4824 172.202C70.345 172.144 70.2067 172.09 70.0663 172.043C70.003 172.022 69.9398 172.004 69.8766 171.986C69.7589 171.952 69.6406 171.922 69.5214 171.895C69.4538 171.879 69.3869 171.865 69.3199 171.852C69.1986 171.83 69.0773 171.812 68.9559 171.797C68.8942 171.789 68.8332 171.78 68.7714 171.774C68.6074 171.759 68.4442 171.751 68.2825 171.749C68.267 171.749 68.2508 171.747 68.2354 171.747H68.228C67.9736 171.747 67.7273 171.77 67.4883 171.802C67.4288 171.811 67.3699 171.82 67.3119 171.83C67.0758 171.87 66.8464 171.922 66.6368 171.994C65.3191 172.496 63.5022 173.709 62.6639 175.557C62.7154 175.032 62.7948 174.5 62.9249 173.961C63.3706 172.113 64.097 170.897 65.7206 169.746C65.889 169.627 66.0736 169.516 66.267 169.411C66.3265 169.379 66.3883 169.349 66.4492 169.318C66.5912 169.246 66.7383 169.177 66.8905 169.113C66.9618 169.083 67.0316 169.053 67.1044 169.025C67.2706 168.96 67.4412 168.902 67.6148 168.845C67.6721 168.827 67.7266 168.807 67.7839 168.79C68.0163 168.721 68.2545 168.66 68.4957 168.609C68.5442 168.599 68.5942 168.591 68.6427 168.582C68.8368 168.545 69.0317 168.512 69.228 168.487C69.3067 168.476 69.3861 168.469 69.4648 168.461C69.6383 168.442 69.8118 168.431 69.9832 168.423C70.0604 168.42 70.1376 168.415 70.214 168.413C70.3861 168.412 70.5553 168.418 70.7237 168.427C70.8023 168.431 70.8839 168.431 70.9619 168.438C71.2031 168.457 71.4398 168.489 71.6677 168.534C71.5582 168.247 71.4347 167.985 71.3016 167.741C71.2575 167.66 71.206 167.591 71.1597 167.515C71.0655 167.362 70.97 167.21 70.8655 167.075C70.8038 166.996 70.7354 166.926 70.67 166.853C70.5685 166.74 70.4656 166.63 70.3538 166.532C70.278 166.465 70.1986 166.405 70.1184 166.345C70.0052 166.259 69.8883 166.179 69.7656 166.107C69.678 166.056 69.5883 166.007 69.4964 165.962C69.3662 165.9 69.2317 165.845 69.092 165.795C68.995 165.76 68.8972 165.724 68.7964 165.695C68.6456 165.653 68.4869 165.621 68.3251 165.591C68.2221 165.572 68.1221 165.55 68.0141 165.536C67.8295 165.513 67.6332 165.503 67.4354 165.495C67.339 165.49 67.2486 165.481 67.1486 165.48C66.8448 165.478 66.528 165.49 66.1934 165.519C63.9155 165.721 62.5632 166.946 61.9352 167.653C60.1095 170.25 60.2609 172.91 60.9617 175.021C58.2145 170.582 55.1866 168.771 52.3983 168.696C52.2953 168.692 52.1946 168.706 52.0916 168.714C52.0108 168.721 51.9291 168.722 51.8483 168.735C51.7578 168.75 51.6688 168.776 51.5799 168.797C51.5012 168.818 51.4218 168.833 51.3439 168.858C51.2541 168.888 51.1659 168.929 51.0769 168.967C51.0004 168.999 50.9254 169.026 50.8504 169.064C50.7607 169.11 50.674 169.166 50.5865 169.22C50.5144 169.264 50.4423 169.302 50.3718 169.35C50.2835 169.411 50.1982 169.483 50.1122 169.551C50.0453 169.604 49.9769 169.654 49.9122 169.711C49.8262 169.788 49.7431 169.876 49.6593 169.96C49.5982 170.021 49.5365 170.078 49.4769 170.144C49.3938 170.236 49.3151 170.339 49.2357 170.439C49.1806 170.508 49.1232 170.572 49.0695 170.645C48.9916 170.751 48.9188 170.868 48.8445 170.981C48.7952 171.058 48.7423 171.131 48.6953 171.21C48.6232 171.33 48.5585 171.46 48.4916 171.586C48.4474 171.671 48.4004 171.75 48.3585 171.837C48.2945 171.969 48.2379 172.111 48.1791 172.251C48.1408 172.34 48.0989 172.428 48.0636 172.521C48.0078 172.667 47.9592 172.821 47.9099 172.974C47.879 173.069 47.8438 173.16 47.8158 173.258C47.7695 173.416 47.732 173.584 47.6923 173.748C47.668 173.849 47.6401 173.943 47.618 174.046C47.582 174.218 47.5555 174.398 47.5268 174.577C47.5107 174.678 47.4893 174.776 47.4754 174.88C47.4511 175.066 47.4371 175.26 47.421 175.452C47.4129 175.555 47.3989 175.653 47.393 175.755C47.382 175.951 47.3813 176.152 47.3807 176.354L47.3805 176.392C47.3805 176.486 47.3739 176.575 47.3754 176.669C47.3805 176.98 47.3974 177.298 47.4261 177.619C48.7923 176.147 50.2967 174.844 51.6438 174.452C51.8629 174.384 52.0799 174.327 52.2931 174.278C52.3806 174.258 52.4659 174.245 52.5534 174.228C52.6777 174.203 52.8027 174.175 52.9247 174.156C53.0203 174.142 53.1138 174.135 53.2086 174.123C53.3189 174.109 53.4314 174.092 53.5402 174.083C53.6365 174.076 53.7307 174.076 53.8262 174.072C53.9307 174.067 54.0358 174.059 54.1387 174.059C54.1659 174.059 54.1932 174.062 54.2204 174.062C54.4549 174.064 54.6858 174.079 54.913 174.102C54.9778 174.108 55.0417 174.115 55.1057 174.123C55.3513 174.153 55.5939 174.193 55.8322 174.248C55.8513 174.252 55.8711 174.259 55.8903 174.263C56.1131 174.315 56.3329 174.38 56.5491 174.453C56.6087 174.472 56.6689 174.492 56.7278 174.513C56.9579 174.595 57.1866 174.684 57.4109 174.785C57.4234 174.792 57.4345 174.798 57.4462 174.803C57.6624 174.902 57.8749 175.013 58.0859 175.129C58.1411 175.159 58.1962 175.19 58.2521 175.222C58.4704 175.348 58.6873 175.479 58.9013 175.621C58.9064 175.624 58.9117 175.628 58.9168 175.631C59.1271 175.772 59.3359 175.923 59.5433 176.079C59.5962 176.119 59.6499 176.159 59.7029 176.199C59.9109 176.361 60.119 176.526 60.3249 176.7C60.0117 176.545 59.697 176.403 59.38 176.277C59.3697 176.274 59.3602 176.27 59.3499 176.266C59.0433 176.145 58.7359 176.038 58.4278 175.95C58.4086 175.946 58.3895 175.941 58.3712 175.935C58.0719 175.852 57.7719 175.785 57.4727 175.738C57.4469 175.734 57.4211 175.732 57.3954 175.728C57.1028 175.686 56.8109 175.662 56.5204 175.66C56.4491 175.659 56.3778 175.661 56.3064 175.663C56.2351 175.665 56.1653 175.667 56.0947 175.672C56.0133 175.678 55.932 175.687 55.8513 175.697C55.7814 175.704 55.7123 175.711 55.6425 175.722C55.5616 175.734 55.4799 175.752 55.399 175.768C55.3307 175.782 55.2616 175.794 55.1939 175.811C55.1115 175.831 55.0292 175.857 54.9476 175.881C54.8814 175.901 54.8152 175.919 54.7491 175.941C54.6717 175.968 54.5943 176 54.5175 176.031L54.4983 176.039C54.4351 176.064 54.3711 176.087 54.3086 176.116C54.2211 176.155 54.1343 176.202 54.0476 176.246C53.9895 176.276 53.9321 176.303 53.8748 176.335C53.7762 176.391 53.6799 176.454 53.5836 176.516C53.5372 176.546 53.4909 176.571 53.4453 176.603C53.3034 176.701 53.1615 176.806 53.0218 176.92C51.0953 178.498 50.1703 182.571 52.4034 185.979C52.6115 184.797 52.9895 183.5 53.8064 182.131C54.8476 180.389 56.4417 179.086 58.0241 178.658C58.3389 178.572 58.6344 178.506 58.9242 178.448C59.0094 178.432 59.0932 178.418 59.1763 178.403C59.394 178.365 59.6065 178.334 59.8146 178.311C59.8867 178.303 59.9594 178.293 60.0308 178.288C60.297 178.265 60.5588 178.253 60.8184 178.253C61.1213 178.254 61.4235 178.27 61.7301 178.302C65.9633 183.142 68.7456 188.053 70.5265 192.549C69.1994 194.18 67.8435 195.78 66.4447 197.344L66.5394 197.542C76.6637 193.915 89.7852 190.786 93.8837 189.85Z" fill="url(#paint3_linear_7340_4270)"/>
<defs>
<linearGradient id="paint0_linear_7340_4270" x1="149.788" y1="79.4298" x2="166.084" y2="80.5106" gradientUnits="userSpaceOnUse">
<stop stop-color="#EEDB5F"/>
<stop offset="0.0001" stop-color="#EEDB5F"/>
<stop offset="1" stop-color="#EEC65F"/>
</linearGradient>
<linearGradient id="paint1_linear_7340_4270" x1="121.953" y1="61.3608" x2="149.327" y2="63.2458" gradientUnits="userSpaceOnUse">
<stop stop-color="#EEDB5F"/>
<stop offset="0.0001" stop-color="#EEDB5F"/>
<stop offset="1" stop-color="#EEC65F"/>
</linearGradient>
<linearGradient id="paint2_linear_7340_4270" x1="99.0004" y1="79.6191" x2="115.592" y2="80.7077" gradientUnits="userSpaceOnUse">
<stop stop-color="#EEDB5F"/>
<stop offset="0.0001" stop-color="#EEDB5F"/>
<stop offset="1" stop-color="#EEC65F"/>
</linearGradient>
<linearGradient id="paint3_linear_7340_4270" x1="61.5749" y1="117.145" x2="212.315" y2="146.893" gradientUnits="userSpaceOnUse">
<stop stop-color="#EEDB5F"/>
<stop offset="0.0001" stop-color="#EEDB5F"/>
<stop offset="1" stop-color="#EEC65F"/>
</linearGradient>
</defs>
</svg>
